<?xml version="1.0" encoding="iso-8859-1"?>
<!-- Uploaded to: SVG Repo, www.svgrepo.com, Generator: SVG Repo Mixer Tools -->
<!DOCTYPE svg PUBLIC "-//W3C//DTD SVG 1.1//EN" "http://www.w3.org/Graphics/SVG/1.1/DTD/svg11.dtd">
<svg fill="#431632" height="800px" width="800px" version="1.1" id="Capa_1" xmlns="http://www.w3.org/2000/svg" xmlns:xlink="http://www.w3.org/1999/xlink" 
	 viewBox="0 0 359.777 359.777" xml:space="preserve">
<path d="M301.806,245.695c-9.665,0-17.5,7.835-17.5,17.5c0,33.381-28.812,61.582-62.918,61.582
	c-34.105,0-62.917-28.203-62.917-61.585V241h45.583c17.094,0,31.417-14.384,31.417-31.477v-90.783c0-0.584-0.436-1.163-0.468-1.739
	h8.468c5.514,0,10-4.486,10-10V77c0-5.514-4.486-10-10-10h-34V10c0-5.514-4.486-10-10-10h-21c-5.514,0-10,4.486-10,10v57h-44V10
	c0-5.514-4.486-10-10-10h-21c-5.514,0-10,4.486-10,10v57h-33c-5.514,0-10,4.486-10,10v30c0,5.514,4.486,10,10,10h7.719
	c-0.032,0.576,0.281,1.155,0.281,1.739v90.783c0,17.093,13.574,31.477,30.668,31.477h34.332v22.192
	c0,25.794,10.334,50.099,29.099,68.437c18.574,18.151,43.015,28.148,68.818,28.148c25.805,0,50.245-9.996,68.818-28.146
	c18.766-18.337,29.1-42.641,29.1-68.436C319.306,253.53,311.471,245.695,301.806,245.695z M148.527,176.702l-20.675,20.675
	c-1.534,1.534-3.577,2.379-5.754,2.379c-2.176,0-4.22-0.844-5.754-2.378l-11.759-11.759c-3.172-3.173-3.172-8.336,0-11.508
	l20.676-20.676l-21.619-21.619c-3.173-3.173-3.173-8.335,0-11.508l11.759-11.759c1.534-1.534,3.578-2.379,5.754-2.379
	c2.177,0,4.22,0.845,5.754,2.379l21.619,21.619l21.619-21.619c1.535-1.534,3.578-2.379,5.754-2.379c2.176,0,4.22,0.845,5.754,2.379
	l11.759,11.759c3.173,3.173,3.173,8.336,0,11.509l-21.619,21.619l20.675,20.675c3.172,3.173,3.172,8.335,0,11.508l-11.76,11.76
	c-1.534,1.534-3.578,2.379-5.754,2.379c-2.177,0-4.22-0.844-5.754-2.379L148.527,176.702z"/>
</svg>