<?xml version="1.0" encoding="iso-8859-1"?>
<!-- Uploaded to: SVG Repo, www.svgrepo.com, Generator: SVG Repo Mixer Tools -->
<!DOCTYPE svg PUBLIC "-//W3C//DTD SVG 1.1//EN" "http://www.w3.org/Graphics/SVG/1.1/DTD/svg11.dtd">
<svg fill="[[color4]]" height="800px" width="800px" version="1.1" id="Capa_1" xmlns="http://www.w3.org/2000/svg" xmlns:xlink="http://www.w3.org/1999/xlink" 
	 viewBox="0 0 372.145 372.145" xml:space="preserve">
<g>
	<path d="M370.431,141.221l-37.095-37.72c-1.132-1.151-2.675-1.785-4.343-1.785c-1.893,0-3.827,0.836-5.31,2.293L187.106,238.322
		c-1.399,1.376-2.826,3.524-3.459,5.197l-22.414,58.251c-0.729,1.925-0.458,4.096,0.725,5.808c1.202,1.739,3.163,2.778,5.246,2.778
		c0.72,0,1.429-0.123,2.137-0.377l58.561-21.419c1.71-0.612,3.883-2.003,5.284-3.382l136.577-134.313
		c1.499-1.475,2.367-3.416,2.382-5.329C372.157,143.888,371.547,142.354,370.431,141.221z"/>
	<path d="M259.418,301.248c-2.69,0-6.003,3.871-6.112,4.003c-4.194,4.119-9.85,7.669-15.517,9.739l-58.872,21.855
		c-4.464,1.603-8.295,2.381-11.718,2.381c-11.167,0-21.782-5.711-28.396-15.277c-6.466-9.353-7.928-21.29-3.911-31.931
		l22.465-58.476c2.108-5.508,5.76-11.067,10.017-15.252l86.565-85.151c6.75-6.891,6.529-14.222,5.469-17.135
		c-2.483-6.828-6.537-12.907-11.121-16.68l-90.534-74.391c-7.54-6.205-20.298-10.708-30.337-10.708H23.097
		C10.361,14.226,0,24.395,0,36.894c0.002,3.001,0.161,300.089,0.161,301.647c0,11.35,7.947,19.277,19.327,19.277
		c7.211,0,220.55,0.102,220.55,0.102c12.484,0,22.641-10.325,22.641-23.017v-27.01C262.679,303.483,261.582,301.248,259.418,301.248
		z M141.679,43.898l99.741,78.328h-84.15c-14.839,0-15.591-12.732-15.591-15.285V43.898z M40.679,153.226h118
		c8.284,0,15,6.716,15,15s-6.716,15-15,15h-118c-8.284,0-15-6.716-15-15S32.395,153.226,40.679,153.226z M105.679,334.226h-65
		c-8.284,0-15-6.716-15-15s6.716-15,15-15h65c8.284,0,15,6.716,15,15S113.963,334.226,105.679,334.226z M105.679,258.226h-65
		c-8.284,0-15-6.716-15-15s6.716-15,15-15h65c8.284,0,15,6.716,15,15S113.963,258.226,105.679,258.226z M167.199,340.226
		c-0.022,0-0.043-0.002-0.064-0.002c0.023,0,0.046,0.002,0.069,0.002C167.202,340.226,167.201,340.226,167.199,340.226z"/>
</g>
</svg>